<?xml version="1.0" encoding="utf-8"?>
<!-- Generator: Adobe Illustrator 24.3.0, SVG Export Plug-In . SVG Version: 6.00 Build 0)  -->
<svg version="1.1" id="Ebene_1" xmlns="http://www.w3.org/2000/svg" xmlns:xlink="http://www.w3.org/1999/xlink" x="0px" y="0px"
	 viewBox="0 0 289.5 59.6" style="enable-background:new 0 0 289.5 59.6;" xml:space="preserve">
<style type="text/css">
	.st0{fill:#6C6E74;}
	.st1{fill-rule:evenodd;clip-rule:evenodd;fill:#6C6E74;}
</style>
<g>
	<g>
		<path class="st0" d="M67.9,17.9h21.7c4.7,0,7.4,0.9,7.4,6c0,3-0.6,4.9-3.7,5.4v0.3c3.5,0.2,4.1,2.3,4.1,5.3c0,5.8-2.7,6.6-7.7,6.6
			H67.9V17.9L67.9,17.9z M74.2,27.3H88c2.2,0,2.7-0.4,2.7-2.3c0-1.4-0.2-1.9-2-2H74.2V27.3L74.2,27.3z M74.2,36.3h14.1
			c2,0,2.9-0.5,2.9-2.4c0-1.9-0.7-2.2-2.8-2.2H74.2V36.3L74.2,36.3z"/>
		<path class="st0" d="M99.8,17.9h21.4c5.4,0.1,8.1,1.3,8.1,7.1c0,3.9,0,6.2-4.5,7.3v0.3c2.6,0.1,4.2,1.5,4.2,4.2v4.7h-6.3v-3.3
			c0.1-1.8-0.7-3-2.6-3h-14.2v6.2h-6.3V17.9L99.8,17.9z M120.3,29.7c2.7,0,2.6-1,2.6-3.7c0-2.1-0.5-2.7-2.6-2.7h-14.2v6.4H120.3
			L120.3,29.7z"/>
		<path class="st0" d="M249.5,17.9h21.4c5.4,0.1,8.1,1.3,8.1,7.1c0,3.9,0,6.2-4.5,7.3v0.3c2.6,0.1,4.2,1.5,4.2,4.2v4.7h-6.3v-3.3
			c0.1-1.8-0.7-3-2.6-3h-14.2v6.2h-6.3V17.9L249.5,17.9z M270,29.7c2.7,0,2.6-1,2.6-3.7c0-2.1-0.5-2.7-2.6-2.7h-14.2v6.4H270
			L270,29.7z"/>
		<polygon class="st0" points="138.5,27.3 157.6,27.3 157.6,31.7 138.5,31.7 138.5,36.3 158.5,36.3 158.5,41.4 132.3,41.4 
			132.3,17.9 158.2,17.9 158.2,23 138.5,23 138.5,27.3 		"/>
		<polygon class="st0" points="227.3,27.3 246.3,27.3 246.3,31.7 227.3,31.7 227.3,36.3 247.2,36.3 247.2,41.4 221,41.4 221,17.9 
			247,17.9 247,23 227.3,23 227.3,27.3 		"/>
		<path class="st0" d="M180.2,27.1c7,0.5,8.7,1.4,8.7,6.8c0,3.8,0.1,7.5-9.3,7.7c-0.3,0-9.8,0-10.1,0c-5.5,0-9-0.5-9-7.8h6
			c0,2.2,0.7,2.6,3,2.7c0.3,0,9.9,0,10.2,0c2.2-0.1,3-0.4,3-2.2c0-2-0.3-2-3.3-2.2l-9.5-0.1c-5.8-0.4-9.2-0.4-9.2-7.1
			c0-6.4,3.4-7.1,8.9-7.2c0.3,0,9.8,0,10.1,0c4.8,0,8.7,0.5,8.7,6.6v1h-6c0-2.1-0.8-2.4-2.7-2.4c-0.3,0-9.6,0-9.9,0
			c-2.5,0.1-2.7,0.8-2.7,2c0,1.9,0.9,1.9,2.6,2.1L180.2,27.1L180.2,27.1z"/>
		<path class="st0" d="M210.2,27.1c7,0.5,8.7,1.4,8.7,6.8c0,3.8,0.1,7.5-9.3,7.7c-0.3,0-9.8,0-10.1,0c-5.5,0-9-0.5-9-7.8h6
			c0,2.2,0.7,2.6,3,2.7c0.3,0,9.9,0,10.2,0c2.2-0.1,3-0.4,3-2.2c0-2-0.3-2-3.3-2.2l-9.5-0.1c-5.8-0.4-9.2-0.4-9.2-7.1
			c0-6.4,3.4-7.1,8.9-7.2c0.3,0,9.8,0,10.1,0c4.8,0,8.7,0.5,8.7,6.6v1h-6c0-2.1-0.8-2.4-2.7-2.4c-0.3,0-9.6,0-9.9,0
			c-2.5,0.1-2.7,0.8-2.7,2c0,1.9,0.9,1.9,2.6,2.1L210.2,27.1L210.2,27.1z"/>
		<path class="st0" d="M281.3,20.4c0-1.5,1.2-2.5,2.6-2.5c1.4,0,2.6,1.1,2.6,2.5c0,1.5-1.2,2.5-2.6,2.5
			C282.5,22.9,281.3,21.9,281.3,20.4L281.3,20.4z M283.9,22.5c1.1,0,2.1-0.9,2.1-2.1c0-1.2-0.9-2.1-2.1-2.1c-1.2,0-2.1,0.9-2.1,2.1
			C281.8,21.6,282.7,22.5,283.9,22.5L283.9,22.5z M283.4,21.9h-0.4v-2.9h1.1c0.7,0,1,0.3,1,0.8c0,0.5-0.3,0.8-0.8,0.8l0.8,1.3h-0.5
			l-0.8-1.3h-0.5V21.9L283.4,21.9z M283.9,20.2c0.4,0,0.7,0,0.7-0.5c0-0.4-0.3-0.4-0.6-0.4h-0.6v0.9H283.9L283.9,20.2L283.9,20.2z"
			/>
		<path class="st0" d="M14.9,11.7V7.5C19.1,4.6,24.2,3,29.6,3c14.7,0,26.6,11.9,26.6,26.6c0,14.7-11.9,26.6-26.6,26.6
			c-5.5,0-10.5-1.6-14.8-4.5v-4.2c4,3.3,9.2,5.3,14.8,5.3c12.8,0,23.2-10.4,23.2-23.2c0-12.8-10.4-23.2-23.2-23.2
			C24,6.4,18.9,8.4,14.9,11.7L14.9,11.7z"/>
		<path class="st0" d="M3,29.6c0-8,3.5-15.1,9-20v39.9C6.5,44.7,3,37.6,3,29.6L3,29.6z"/>
		<path class="st1" d="M21.9,26.5v-5.3h15.5c2,0.1,2.2,0.7,2.2,2.5c0,2.3-0.6,2.8-3.1,2.8H21.9L21.9,26.5z M21.9,37.6v-5.7h15.6
			c2.3,0,3.1,0.3,3.1,2.7c0,2.4-0.9,2.9-3.2,2.9H21.9L21.9,37.6z M14.9,14.9v29H39c5.6,0,8.6-1,8.6-8.1c0-6.5-5.1-6.7-5.1-6.7
			c3.5-0.6,4.2-3.2,4.2-6.8c0-6.3-3.1-7.4-8.3-7.4H14.9L14.9,14.9z"/>
	</g>
	<g>
		<path class="st0" d="M79.6,53.2c0,2.5-0.8,3.4-3.1,3.4h-5.2c-2.5,0-3.3-1.1-3.3-3.5v-2.5c0-2.4,0.8-3.5,3.3-3.5H76
			c1.7,0,3.5,0.4,3.5,2.6V50h-1.2c0-1.7-0.5-1.9-3.6-1.9h-3.3c-1.2,0-2.2,0.4-2.2,2v3.5c0,1.6,1,2,2.2,2h4.9c1.3,0,2-0.4,2-1.7v-0.9
			h-4.8v-1h6V53.2z"/>
		<path class="st0" d="M81.7,47.2h7.4c2.7,0,3.1,0.9,3.1,2.6v0.8c0,1.3-0.7,1.7-1.7,1.8v0c1.3,0.2,1.6,0.9,1.6,1.7v2.4H91v-2
			c0-1.5-0.7-1.6-1.8-1.6H83v3.7h-1.3V47.2z M89,51.8c1.4,0,2-0.4,2-1.3v-0.8c0-1-0.4-1.4-2.3-1.4H83v3.6H89z"/>
		<path class="st0" d="M94.2,50.6c0-2.4,0.8-3.5,3.3-3.5h5.4c2.5,0,3.3,1.1,3.3,3.5v2.5c0,2.4-0.8,3.5-3.3,3.5h-5.4
			c-2.5,0-3.3-1.1-3.3-3.5V50.6z M104.9,50.1c0-1.6-1-2-2.2-2h-5.1c-1.2,0-2.2,0.4-2.2,2v3.5c0,1.6,1,2,2.2,2h5.1
			c1.2,0,2.2-0.4,2.2-2V50.1z"/>
		<path class="st0" d="M108.4,47.2h1.3v6.9c0,0.9,0.3,1.4,2,1.4h4.4c1.7,0,2-0.5,2-1.4v-6.9h1.3v7c0,1.9-1,2.4-3.3,2.4h-4.3
			c-2.4,0-3.3-0.6-3.3-2.4V47.2z"/>
		<path class="st0" d="M121.8,47.2h7.7c1.7,0,2.7,0.4,2.7,2.5c0,2.1-0.2,3.1-2.9,3.1h-6.2v3.7h-1.3V47.2z M130.9,49.6
			c0-1.1-0.6-1.4-1.7-1.4h-6.1v3.6h6.2c1,0,1.6-0.4,1.6-1.3V49.6z"/>
		<path class="st0" d="M139.8,50.6c0-2.4,0.8-3.5,3.3-3.5h5.4c2.5,0,3.3,1.1,3.3,3.5v2.5c0,2.4-0.8,3.5-3.3,3.5h-5.4
			c-2.5,0-3.3-1.1-3.3-3.5V50.6z M150.6,50.1c0-1.6-1-2-2.2-2h-5.1c-1.2,0-2.2,0.4-2.2,2v3.5c0,1.6,1,2,2.2,2h5.1
			c1.2,0,2.2-0.4,2.2-2V50.1z"/>
		<path class="st0" d="M154.1,47.2h8.9v1h-7.6v3h7.3v1h-7.3v4.3h-1.3V47.2z"/>
		<path class="st0" d="M170.8,50.6c0-2.4,0.8-3.5,3.3-3.5h4.8c2.3,0,2.9,1.1,2.9,2.3v0.8h-1.1v-0.4c0-1.6-1-1.7-2.1-1.7h-4.4
			c-1.2,0-2.2,0.4-2.2,2v3.5c0,1.6,1,2,2.2,2h4.4c1.7,0,2.2-0.4,2.2-1.6v-0.6h1.2V54c0,1.7-0.5,2.6-3.1,2.6h-4.8
			c-2.5,0-3.3-1.1-3.3-3.5V50.6z"/>
		<path class="st0" d="M183.8,50.6c0-2.4,0.8-3.5,3.3-3.5h5.4c2.5,0,3.3,1.1,3.3,3.5v2.5c0,2.4-0.8,3.5-3.3,3.5h-5.4
			c-2.5,0-3.3-1.1-3.3-3.5V50.6z M194.5,50.1c0-1.6-1-2-2.2-2h-5.1c-1.2,0-2.2,0.4-2.2,2v3.5c0,1.6,1,2,2.2,2h5.1
			c1.2,0,2.2-0.4,2.2-2V50.1z"/>
		<path class="st0" d="M197.9,47.2h2l5.4,7.8l5.4-7.8h2v9.3h-1.3v-8.2h0l-5.7,8.2h-0.9l-5.7-8.2h0v8.2h-1.3V47.2z"/>
		<path class="st0" d="M215.1,47.2h7.7c1.7,0,2.7,0.4,2.7,2.5c0,2.1-0.2,3.1-2.9,3.1h-6.2v3.7h-1.3V47.2z M224.2,49.6
			c0-1.1-0.6-1.4-1.7-1.4h-6.1v3.6h6.2c1,0,1.6-0.4,1.6-1.3V49.6z"/>
		<path class="st0" d="M231,47.2h1.6l5.5,9.3h-1.4l-1.2-2H228l-1.2,2h-1.4L231,47.2z M231.8,48.3l-3.1,5.3h6.2L231.8,48.3z"/>
		<path class="st0" d="M239.4,47.2h1.9l8.5,8.2v-8.2h1.3v9.3h-1.9l-8.5-8.2v8.2h-1.3V47.2z"/>
		<path class="st0" d="M253.5,47.2h1.3v9.3h-1.3V47.2z"/>
		<path class="st0" d="M257.3,47.2h9.1v1h-7.9v3h7.6v1h-7.6v3.3h7.9v1h-9.2V47.2z"/>
		<path class="st0" d="M268.1,53.6h1.2v0.7c0,0.9,0.5,1.3,2.1,1.3h3.9c1.8,0,2.4-0.4,2.4-1.7c0-1.2-0.5-1.5-2-1.5h-2.4
			c-3.8,0-5.1-0.2-5.1-2.7c0-2.1,1.3-2.6,3.9-2.6h2.7c3.1,0,3.9,0.8,3.9,2.5v0.3h-1.2c0-1.5-0.2-1.7-3.5-1.7h-1.3
			c-2.4,0-3.3,0.1-3.3,1.7c0,1.1,0.3,1.5,2.3,1.5h3.7c2.5,0,3.5,0.7,3.5,2.3v0.6c0,2.3-1.9,2.5-3.7,2.5h-3.5c-1.8,0-3.5-0.3-3.5-2.4
			V53.6z"/>
	</g>
</g>
</svg>
