<?xml version="1.0" encoding="UTF-8"?>
<!DOCTYPE svg PUBLIC "-//W3C//DTD SVG 1.1//EN" "http://www.w3.org/Graphics/SVG/1.1/DTD/svg11.dtd">
<!-- Creator: CorelDRAW X8 -->
<svg xmlns="http://www.w3.org/2000/svg" xml:space="preserve" width="2949px" height="983px" version="1.1" style="shape-rendering:geometricPrecision; text-rendering:geometricPrecision; image-rendering:optimizeQuality; fill-rule:evenodd; clip-rule:evenodd"
viewBox="0 0 3334 1111"
 xmlns:xlink="http://www.w3.org/1999/xlink">
 <defs>
  <style type="text/css">
   <![CDATA[
    .fil0 {fill:none}
    .fil3 {fill:#FEFEFE}
    .fil1 {fill:#FECC00}
    .fil2 {fill:#FEFEFE;fill-rule:nonzero}
   ]]>
  </style>
 </defs>
 <g id="Слой_x0020_1">
  <metadata id="CorelCorpID_0Corel-Layer"/>
  <polygon class="fil0" points="0,0 3334,0 3334,1111 0,1111 "/>
  <path class="fil1" d="M966 331c-11,3 -22,-4 -25,-14 -3,-11 4,-22 14,-24 89,-25 183,-48 280,-69 95,-21 195,-40 298,-57 188,-31 371,-51 543,-63 178,-12 345,-14 493,-6 11,0 19,9 18,20 0,11 -9,20 -20,19 -147,-7 -312,-5 -489,7 -171,11 -352,32 -539,62 -101,17 -200,36 -295,56 -98,22 -191,44 -278,69zm2095 -106c-10,-4 -15,-15 -10,-26 4,-10 16,-14 26,-10 40,17 74,37 99,59 26,22 44,47 53,74 23,69 -13,143 -99,215 -83,71 -214,142 -381,209 -11,4 -22,-1 -26,-11 -4,-10 1,-22 11,-26 163,-65 291,-134 371,-202 72,-62 104,-120 87,-172 -7,-21 -21,-40 -42,-57 -22,-19 -52,-37 -89,-53zm-1400 750c11,-2 21,6 22,17 2,11 -6,21 -17,22 -401,56 -772,67 -1050,38 -283,-30 -474,-103 -511,-213 -15,-46 -4,-93 29,-140 31,-46 85,-92 156,-138 10,-6 22,-3 28,6 6,9 3,21 -6,27 -67,43 -117,86 -146,128 -25,36 -34,72 -23,104 31,95 210,158 477,186 276,29 643,19 1041,-37z"/>
  <path class="fil2" d="M1470 933l5 -26 -49 0 0 0 13 -10c25,-19 47,-38 47,-66 0,-22 -15,-38 -43,-38 -16,0 -32,5 -43,12l6 22c8,-5 17,-8 30,-8 12,0 19,7 19,16 0,17 -18,33 -46,56l-29 23 -4 19 94 0zm87 -140c-42,0 -65,49 -65,93 0,28 12,50 40,50 44,0 65,-53 65,-96 0,-24 -10,-47 -40,-47zm-4 24c12,0 14,14 14,24 0,18 -10,70 -31,70 -12,0 -14,-14 -14,-24 0,-20 11,-70 31,-70zm140 116l11 -59 62 -84 -36 0 -22 36c-6,11 -10,19 -15,26l0 0c-1,-7 -3,-14 -5,-25l-10 -37 -32 0 28 85 -11 58 30 0zm120 -28c-9,4 -18,7 -29,7 -9,0 -16,-3 -20,-8 -2,-3 -4,-8 -4,-11 42,1 68,-8 68,-35 0,-19 -15,-31 -36,-31 -38,0 -61,33 -61,65 0,27 15,44 45,44 12,0 27,-3 39,-9l-2 -22zm-14 -47c0,10 -12,13 -36,13 2,-10 11,-22 25,-22 7,0 11,4 11,9zm124 75c0,-13 2,-33 4,-46l11 -55c-8,-3 -22,-5 -34,-5 -51,0 -74,38 -74,73 0,21 12,36 31,36 12,0 25,-6 35,-23l0 0c0,7 -1,14 -1,20l28 0zm-24 -58c-5,26 -16,36 -25,36 -9,0 -13,-7 -13,-17 0,-20 15,-44 35,-44 3,0 6,1 8,1l-5 24zm70 58l7 -38c4,-21 13,-38 33,-38 1,0 3,0 5,0l6 -30c-2,0 -4,0 -6,0 -14,0 -26,10 -33,24l-1 0c1,-8 1,-15 2,-22l-27 0c-1,9 -2,27 -5,43l-12 61 31 0zm37 -6c6,5 19,8 32,8 27,1 47,-12 47,-36 0,-15 -11,-23 -23,-29 -8,-4 -12,-7 -12,-11 0,-6 5,-10 13,-10 9,0 17,3 21,5l7 -22c-5,-3 -14,-5 -27,-5 -26,0 -45,14 -45,36 0,13 10,21 22,27 9,5 13,9 13,14 0,5 -5,9 -14,9 -10,0 -21,-4 -27,-7l-7 21zm154 6l20 -104 -31 0 -19 104 30 0zm9 -116c10,0 18,-7 18,-18 0,-9 -7,-15 -16,-15 -9,0 -17,7 -17,18 0,9 6,15 14,15l1 0zm40 116l9 -46c4,-23 16,-35 26,-35 8,0 10,5 10,12 0,4 0,8 -1,12l-11 57 31 0 11 -60c1,-5 2,-13 2,-17 0,-18 -10,-29 -27,-29 -14,0 -26,6 -36,20l-1 0 2 -18 -27 0c-1,10 -3,21 -5,34l-13 70 30 0zm207 -145c-21,0 -39,8 -52,20 -17,16 -27,42 -27,68 0,33 21,60 58,60 22,0 40,-8 53,-21 17,-16 26,-41 26,-67 0,-35 -20,-60 -58,-60zm-4 25c23,0 29,18 29,35 0,17 -6,40 -17,52 -7,6 -15,10 -24,10 -21,0 -30,-15 -30,-35 0,-17 6,-40 18,-51 6,-7 15,-11 24,-11zm92 120l7 -38c4,-21 13,-38 32,-38 2,0 4,0 5,0l6 -30c-2,0 -4,0 -6,0 -14,0 -25,10 -33,24l0 0c0,-8 1,-15 1,-22l-26 0c-1,9 -2,27 -5,43l-12 61 31 0zm68 -150l-21 105c-1,6 -2,12 -2,19 0,18 12,29 37,29 47,0 69,-39 69,-73 0,-18 -10,-36 -32,-36 -12,0 -24,6 -32,15l0 0 12 -59 -31 0zm12 98c3,-18 14,-29 25,-29 10,0 14,8 14,18 0,18 -13,42 -31,42 -7,0 -11,-4 -11,-11 0,-4 0,-8 1,-11l2 -9zm102 52l20 -104 -30 0 -20 104 30 0zm9 -116c10,0 18,-7 18,-18 0,-9 -6,-15 -16,-15 -9,0 -17,7 -17,18 0,9 6,15 14,15l1 0zm37 -7l-4 19 -13 0 -5 24 14 0 -8 41c-2,8 -3,14 -3,19 0,13 9,23 28,23 6,0 14,-1 18,-3l3 -24c-2,1 -6,1 -8,1 -7,0 -9,-4 -9,-9 0,-4 1,-9 2,-13l7 -35 22 0 4 -24 -22 0 5 -28 -31 9z"/>
  <path class="fil1" d="M2833 45c106,15 180,112 166,218 -15,106 -112,180 -218,166 -13,-2 -26,-5 -38,-9 20,-17 35,-41 39,-69 8,-59 -33,-112 -91,-120 -29,-4 -56,3 -77,19 -1,-13 -1,-26 1,-39 15,-106 112,-180 218,-166z"/>
  <path class="fil3" d="M803 441l45 271 100 0 156 -278 -80 -54 -66 145c-19,42 -30,67 -38,91l-2 0c-2,-25 -7,-50 -10,-92l-15 -145 -90 62zm1884 -182c42,6 72,45 66,88 -5,42 -45,72 -87,66 -43,-6 -72,-45 -67,-87 6,-43 45,-73 88,-67zm-417 120l-29 154c-13,67 -47,107 -81,107 -25,0 -33,-16 -33,-39 0,-13 2,-29 5,-44l22 -119 -87 -59 -35 186c-5,23 -7,43 -7,61 0,64 32,94 85,94 41,0 82,-19 117,-62l0 0 81 54c5,-29 10,-66 18,-108l32 -166 -88 -59zm-494 333l29 -153c13,-67 48,-109 82,-109 25,0 35,16 35,38 0,14 -3,28 -5,41l-35 183 99 0 36 -191c3,-19 6,-44 6,-60 0,-58 -32,-90 -84,-90 -44,0 -79,20 -106,50l-2 0 26 -135 -88 -59 -91 485 98 0zm-327 0l28 -148c13,-74 51,-114 83,-114 25,0 33,17 33,39 0,13 -1,26 -4,39l-35 184 99 0 37 -194c3,-16 5,-41 5,-56 0,-58 -30,-91 -85,-91 -44,0 -86,19 -117,63l-2 0 -81 -55c-3,29 -9,65 -18,108l-42 225 99 0zm-1011 0l82 -425 -88 -59 -93 484 99 0zm893 -90c-26,14 -58,22 -94,22 -29,0 -51,-9 -64,-27 -7,-9 -10,-24 -10,-34 134,3 217,-27 217,-112 0,-62 -49,-100 -117,-100 -121,0 -195,106 -195,208 0,87 50,141 145,141 31,0 70,-4 106,-18 4,-30 9,-56 12,-78l0 -2zm-44 -151c0,30 -38,41 -115,40 7,-31 33,-69 79,-69 22,0 36,11 36,29l0 0zm-550 154c-25,12 -54,19 -87,19 -29,0 -51,-9 -64,-27 -7,-9 -11,-24 -11,-34 134,3 218,-27 218,-112 0,-62 -49,-100 -118,-100 -120,0 -194,106 -194,208 0,87 49,141 145,141 37,0 84,-6 123,-26l-12 -69zm-37 -154c0,30 -39,41 -115,40 7,-31 32,-69 79,-69 22,0 36,11 36,29l0 0zm1841 241l110 0 -93 -197 80 -77c-28,-10 -49,-32 -61,-58l-84 99 -24 31 42 -224 -87 -58 -91 484 98 0c15,-77 6,-34 35,-187l75 187z"/>
  <polygon class="fil1" points="3098,669 3125,822 3215,840 3125,858 3098,1011 3072,858 2982,840 3072,822 "/>
  <polygon class="fil1" points="194,138 222,299 317,318 222,336 194,497 167,336 72,318 167,299 "/>
  <polygon class="fil1" points="770,48 789,161 856,174 789,187 770,300 751,187 684,174 751,161 "/>
 </g>
</svg>
